<?xml version="1.0" encoding="UTF-8"?><svg id="Calque_1" xmlns="http://www.w3.org/2000/svg" viewBox="0 0 702 250"><defs><style>.cls-1{fill:#949ccc;}.cls-1,.cls-2,.cls-3{fill-rule:evenodd;}.cls-2{fill:#ecb731;}.cls-3{fill:#fff;}</style></defs><path class="cls-1" d="m54.08,118.13c0-29.47,23.89-53.35,53.35-53.35,13.75,0,26.28,5.2,35.73,13.73-16.74,4.2-30.94,18.38-30.94,39.24s14.51,35.49,31.49,39.5c-9.86,9.17-22.82,14.25-36.28,14.23-29.46,0-53.35-23.89-53.35-53.35h0Z"/><path class="cls-2" d="m151.19,87.6c6.26,8.95,9.61,19.61,9.59,30.53,0,11.09-3.38,21.39-9.17,29.92-13.8-.96-27.39-11.84-27.39-30.3s13.32-29.01,26.97-30.15Z"/><path class="cls-3" d="m257.87,129.13c0-19.22-15.31-29.02-27.19-29.02-7.59,0-13.72,2.08-17.15,5.76l-.37-4.41h-9.55v83.77h11.15v-30.62c2.82,1.84,7.84,3.68,13.83,3.68,16.53,0,29.27-12,29.27-29.15h0Zm-11.27,0c0,11.64-8.08,19.35-18,19.35-5.88,0-10.9-2.32-13.83-5.14v-27.8c2.94-3.31,7.84-5.63,13.83-5.63,9.92,0,18,7.71,18,19.22h0Zm57.73-27.68h-19.59v-17.02l-11.02,5.75v11.27h-10.9v8.94h10.9v30.49c0,11.02,8.08,16.9,18.12,16.9,2.21,0,3.8-.12,5.02-.49l2.2-9.92c-1.71.61-3.8.85-6.12.85-4.53,0-8.21-2.44-8.21-6.98v-30.86h17.64l1.96-8.94h0Zm22.85-17.39c0-2.33-4.53-6.86-6.86-6.86-2.21,0-6.74,4.53-6.74,6.86,0,2.21,4.53,6.74,6.74,6.74,2.32,0,6.86-4.53,6.86-6.74Zm-1.23,72.87v-55.48h-11.27v55.48h11.27Zm58.37-52.66c-4.66-2.57-10.41-4.16-17.76-4.16-15.18,0-30.13,10.9-30.13,29.15s14.94,29.03,30.13,29.03c5.51,0,10.53-.98,14.57-2.82l2.32-10.9c-6.24,2.94-10.77,3.91-15.92,3.91-10.16,0-19.83-7.35-19.83-19.22s9.43-19.35,19.59-19.35c5.39,0,9.92.98,14.94,4.16l2.08-9.8h0Zm131.81,24.98c0-17.27-12.86-29.15-29.39-29.15s-29.51,11.88-29.51,29.15,12.98,29.03,29.51,29.03,29.39-11.88,29.39-29.03Zm-11.27,0c0,11.51-8.45,19.22-18.12,19.22s-18.24-7.71-18.24-19.22,8.45-19.35,18.24-19.35c9.67,0,18.12,7.72,18.12,19.35Zm77.16,0c0-17.27-12.85-29.15-29.38-29.15s-29.52,11.88-29.52,29.15,12.98,29.03,29.52,29.03,29.38-11.88,29.38-29.03Zm-11.26,0c0,11.51-8.45,19.22-18.12,19.22s-18.25-7.71-18.25-19.22,8.45-19.35,18.25-19.35c9.67,0,18.12,7.72,18.12,19.35Zm77.16,0c0-17.27-12.86-29.15-29.39-29.15s-29.52,11.88-29.52,29.15,12.98,29.03,29.52,29.03,29.39-11.88,29.39-29.03h0Zm-11.27,0c0,11.51-8.45,19.22-18.12,19.22s-18.25-7.71-18.25-19.22,8.45-19.35,18.25-19.35c9.68,0,18.12,7.72,18.12,19.35Zm-186.09,17.98v9.7h-46.77v-2.76c6.22-6.56,31.79-32.92,31.79-47.63,0-8.45-5.32-12.42-12.2-12.42-6.01,0-10.22,2.2-15.1,5.41l-2.36-9.96c5.42-3.53,10.93-5.37,17.46-5.37,13.47,0,23.44,7.91,23.44,22.67,0,13.27-15.32,32.02-23.52,40.36h27.26s0,0,0,0Zm-255.56-29.49c0-25.11-20.57-40.54-41.39-40.54s-41.39,15.43-41.39,40.54,20.57,40.66,41.39,40.66,41.39-15.31,41.39-40.66Zm-12,0c0,19.35-15.19,30.37-29.39,30.37s-29.39-11.02-29.39-30.37,14.94-30.25,29.39-30.25,29.39,10.9,29.39,30.25Z"/></svg>